<svg id="Layer_1" data-name="Layer 1" xmlns="http://www.w3.org/2000/svg" xmlns:xlink="http://www.w3.org/1999/xlink" viewBox="0 0 1000 1000">
	<defs>
		<linearGradient id="New_Gradient_Swatch" data-name="New Gradient Swatch" x1="47.39" y1="496.88" x2="607.51" y2="500.54" gradientUnits="userSpaceOnUse">
			<stop offset="0" stop-color="#dca384" />
			<stop offset="1" stop-color="#bf9279" />
		</linearGradient>
		<linearGradient id="New_Gradient_Swatch-2" x1="46.72" y1="599.59" x2="606.84" y2="603.25" xlink:href="#New_Gradient_Swatch" />
		<linearGradient id="New_Gradient_Swatch-3" x1="46.05" y1="702.08" x2="606.17" y2="705.74" xlink:href="#New_Gradient_Swatch" />
		<linearGradient id="New_Gradient_Swatch-4" x1="45.34" y1="810.48" x2="605.46" y2="814.14" xlink:href="#New_Gradient_Swatch" />
		<linearGradient id="New_Gradient_Swatch-5" x1="46.71" y1="601.1" x2="606.83" y2="604.76" xlink:href="#New_Gradient_Swatch" />
		<linearGradient id="New_Gradient_Swatch-6" x1="46.03" y1="705.57" x2="606.15" y2="709.24" xlink:href="#New_Gradient_Swatch" />
		<linearGradient id="New_Gradient_Swatch-7" x1="45.33" y1="812.53" x2="605.45" y2="816.19" xlink:href="#New_Gradient_Swatch" />
		<linearGradient id="New_Gradient_Swatch-8" x1="49.96" y1="103.23" x2="610.08" y2="106.89" xlink:href="#New_Gradient_Swatch" />
		<linearGradient id="New_Gradient_Swatch-9" x1="48.26" y1="363.96" x2="608.38" y2="367.62" xlink:href="#New_Gradient_Swatch" />
		<linearGradient id="New_Gradient_Swatch-10" x1="49.32" y1="201.98" x2="609.44" y2="205.64" xlink:href="#New_Gradient_Swatch" />
		<linearGradient id="New_Gradient_Swatch-11" x1="49.35" y1="197.66" x2="609.47" y2="201.32" xlink:href="#New_Gradient_Swatch" />
		<linearGradient id="New_Gradient_Swatch-12" x1="47.63" y1="460.44" x2="607.75" y2="464.1" xlink:href="#New_Gradient_Swatch" />
		<linearGradient id="New_Gradient_Swatch-13" x1="47.55" y1="472.68" x2="607.67" y2="476.34" xlink:href="#New_Gradient_Swatch" />
	</defs>
	<title>
		logo
	</title>
	<g>
		<path d="M922,371.77c.45-81.38-21.79-155.71-72.06-219.68C766.19,45.56,655.56-1.45,520.82,14.32,429.08,25.06,353.35,68.61,294.21,139.5,241.93,202.15,214.28,274.89,213,356.57c-1.17,71.27-.57,142.58-.14,213.87.24,40.74-2,81.55,4.91,122.12C224.44,732,236.8,769.41,256,804.37A355,355,0,0,0,365.87,926.18c23.37,16.25,48.49,29,74.76,39.67,4.7,1.91,9,3.87,11.32-5.11,3.56,8.19,6.95,13.76,15.3,13.12,6.26-.48,11.43,8.25,17.26,3.38,5.13,1.88,9.27,4,13.66,4.87,8,1.52,16.24,1.95,24.28,3.4,23,4.16,46.07,4.4,69.32,2.8a350.21,350.21,0,0,0,132.81-35.83c51.76-25.67,95-61.76,129-108.48,44.2-60.78,67.4-129,68-204.17C922.22,550.48,921.51,461.12,922,371.77ZM695.92,66.33c8.11,4,16.4,7.57,24.29,11.9,78.93,43.32,132.62,107.69,158.86,193.89,6.64,21.81,8.95,44.94,13.22,67.47,1.05,5.55-1,7.62-6.87,6.86A352.8,352.8,0,0,0,757.59,353c-1.56.37-3.22.28-6.47.54,1.17-5.77,1.59-10.72,3.35-15.13.71-1.77,4.27-3.06,6.69-3.39,33.59-4.58,66.8-34.46,74.68-67.43,2.39-10,1.23-11.46-9.05-9.28-27.78,5.9-48,22.26-62.85,46a34.9,34.9,0,0,1-4.91,6.81c7.4-89-13.36-170.25-64.5-243.59ZM390,92.23Q503,20.89,634,46.86c3.45.69,7.38,2.33,9.71,4.81a318.4,318.4,0,0,1,74,128.67c.32,1.07.45,2.2,1,5.09-23.42-28.49-51.08-44.11-88.73-41,1.09,3.75,1.46,6.72,2.76,9.2,17.15,32.59,44.29,50,81,52.23,10.81.66,10.86.15,12.57,10.7.58,3.61,1,7.24,1.69,12.52-13.44-.93-25.78-1.27-38-2.7-50.24-5.9-96.48-23-138.93-50.47-14.8-9.58-31.51-7.45-41.08,5.65,23.49,19.14,49.59,34,79.17,47.59-36.87,6.77-64.49,22.93-80.53,58.89,9.72.13,17.86,1.29,25.66.16,30.44-4.41,54.59-19.18,70.5-45.94,2.84-4.77,5.18-5.22,10-3.57A348.27,348.27,0,0,0,723.8,257.41c5.32.08,7.53,1.54,7.6,7.09.38,31.6-2.88,62.72-10.93,93.33-1.26,4.76-3.74,7.2-8.2,9.37-21.45,10.48-42.63,21.5-63.91,32.34-1,.52-2,1.1-4.59,2.54,13-29.43,17.84-57.75,3.86-86.36L645,314.33c-5.72,6.57-12.47,12.51-17,19.83-15.54,25.2-19.71,52.26-11.21,81,.69,2.36.25,6.33-1.32,7.92-15.14,15.33-30.64,30.31-46,45.37a23.23,23.23,0,0,1-2.79,1.9c-4.37-4.7-8.64-9.27-12.89-13.86a351.28,351.28,0,0,0-85.87-67.6c-4.3-2.43-5.87-4.84-5.07-10A352.87,352.87,0,0,0,449.42,211.6c-1.58-4.79-.57-6.88,4-9.18C484,187,504.92,149.23,502.21,115.18c-.19-2.48-.9-4.92-1.55-8.35-18.19,6.19-30.72,18-40.87,32.66s-15.76,31.08-17.86,49.1A390,390,0,0,0,385.45,96.1,48.11,48.11,0,0,1,390,92.23ZM243.79,320.36q18.61-120.86,110.6-201.51c7.24-6.32,7.4-6.31,13.35,1.3,56.52,72.33,79,154.19,68.61,245.23a31.31,31.31,0,0,1-.61,3.46,28.49,28.49,0,0,1-1.24,3c-5.95-2.23-11.77-5.34-17.95-6.52-14.29-2.73-18.91-9.95-20.52-25.12-3.41-32-21.41-56-50.33-70.86-9.08-4.68-10.62-3.63-10.57,6.41.13,27.35,11.61,49.77,30.74,68.68,2.14,2.11,4.42,4.07,6.64,6.11-43.21-7.87-86.28-9.34-131.23-2.94C242.16,337.77,242.46,329,243.79,320.36ZM240.68,614.6c-.16-2.17-.47-4.34-.46-6.52.06-74.3.25-148.61.11-222.91,0-6.71,1.73-9.32,8.68-10.23,73.1-9.57,141.83,3.23,206.15,39.35,1.6.9,3,2.07,5.83,4-3.14,1.42-5.25,2.46-7.41,3.35-12.37,5-24.88,9.7-37.06,15.14-5.22,2.33-7.89,2-11.23-3.12-18.81-29.12-58-46.63-89.84-40.67-1.32.25-2.6.74-5.54,1.59,16.56,34.15,45,48.87,82.4,54.17-68.44,40.56-118.14,95.5-149.92,166.49Zm294.65,346c-.76-1.11-1.51-2.23-2.27-3.35,3.25-2.22,6.66-4.24,9.69-6.72,2.75-2.26,2.45-4.42-.61-6.77-8.92-6.85-23.07-7.27-31.78,1.07-9.09,8.69-17.55,10.28-29.94,6.51-28-8.53-54.76-19.45-79.78-34.49C324.34,871,275,804.73,250.75,719.2c-4.67-16.5-4-31.92.94-48.12,9.12-30,21.3-58.57,37.89-85.21a36.93,36.93,0,0,1,6.41-7.74c2.72,36.37,15.63,66.34,49.8,86.18,1.25-5.16,2.73-8.81,3-12.55,2.17-34.73-9.63-63.51-37.46-84.93-4.57-3.52-5-5.84-1.35-10,8-9,15.83-18.31,25-28.92,6.47,10.33,12.33,19,17.46,28a318.3,318.3,0,0,1,40.69,129.11c1.5,16.2,9,25.89,21.89,29.32,5.45,1.46,7.23-.18,7.09-5.66-1.75-67.23-19.86-129.42-57.2-185.64-9.36-14.1-9.53-14,4.2-24.43a324.25,324.25,0,0,1,64.43-38.58c1.65-.74,3.35-1.37,5-2-16.61,18.35-27.34,39-30,63.43-1.5,13.89-.25,22.24,3.85,30.74,3.55-2,7.46-3.5,10.52-6,27.82-22.88,40.52-52.14,35.84-88.15-.79-6.15.38-8.82,6.42-10.5,35.33-9.84,23-12.59,50.09,10.78,10.95,9.44,20.16,20.89,30.25,31.34,3.09,3.21,3.29,5.87.62,9.78a343.72,343.72,0,0,0-55.16,135.1c-10.9,62-6.35,122.77,14.64,182.28,17.13,48.56,44.08,90.89,79.77,127.82,4.64,4.79,9.29,9.57,15.47,15.93C577.4,963.53,556.35,964.22,535.33,960.62ZM885.7,706.07c-16.22,73.38-53.79,134-111.33,182C736,920,692,941.56,643.51,953.7c-3.31.83-8.54-.19-10.9-2.43-15.28-14.5-30-29.6-44.94-44.45-4-3.93-1.53-7.18.76-10.53a347.45,347.45,0,0,0,43.9-90.07c13.86-43,18.79-87,15.95-131.86a345.92,345.92,0,0,0-42.75-146.68c-1.1-2-2.31-3.93-4.19-7.13-6.07,8.3-9.59,16.62-9.46,25.41.13,8.95,1.1,18.49,4.37,26.71,36,90.29,33.38,179.46-6.82,267.66-4.95,10.85-11.33,21-17.17,31.49-1.2,2.14-2.93,4-5.57,7.49-6-10.21-11.72-19-16.57-28.16-26-49.35-38.64-102.2-37.34-157.78,2.05-87,33.9-162,95-224.32,8.84-9,18.56-17.22,28.22-25.38,2.19-1.85,6.15-3.31,8.77-2.7a296.51,296.51,0,0,1,71.6,26.83c.76.4,1.31,1.19,2.78,2.58-38.44,4.56-68.1,20.69-84.92,57.71,21.59,4.26,40.36.09,58.14-9.45,17.53-9.4,31.63-22.44,41-42.7,14.58,10.83,28.32,20.83,41.66,31.32,1.1.87.34,5.48-.84,7.64-10.87,20-23.36,39.12-32.81,59.69-19.33,42-28.3,86.75-29.24,133-.16,7.76,1.68,8.95,9.29,6.44,11.28-3.7,18.65-14.09,19.84-27.34A319.53,319.53,0,0,1,795.29,534.6c1-1.52,2.28-2.89,4.57-5.77l28.58,33.36c-35.74,26-51,59.17-41.92,102.32,35.91-18.86,48.64-50.65,50.69-89.59,3.8,6,7.77,11.93,11.37,18.06,17.24,29.34,30,60.51,37.07,93.81A46.74,46.74,0,0,1,885.7,706.07Zm7.89-99.28a21.31,21.31,0,0,1-1.08,6.92C847,518.15,774.59,453.05,674.06,419c.74-1.2,1-2.28,1.67-2.61,14-7,28-14,42.29-20.59,1.39-.64,5.12,1.26,6.23,3,20.12,30.92,48.82,45.42,85.36,45,3.85-.05,7.68-1.07,13.38-1.91-16.67-33.57-43.65-48.74-78.65-54.69,2.57-1.31,3.64-2.09,4.84-2.43a330.14,330.14,0,0,1,137.13-9.46c5.7.79,7.29,3.11,7.28,8.58Q893.44,495.35,893.59,606.79Z" style="fill: url(#New_Gradient_Swatch)" />
		<path d="M695.18,632c7.16-8.24,9.5-18.07,9.58-28.68.13-10-2.54-19.08-8.76-26.84-8.58-10.7-21.22-10.66-30.11-.23-12.09,14.17-11.57,42.53,1,56.18C675.13,641.36,687.22,641.17,695.18,632Z" style="fill: url(#New_Gradient_Swatch-2)" />
		<path d="M821.93,678.64c-7.62,8-9.5,18-10.07,28.75.46,11.34,2.8,22.2,11.92,30.32,7.39,6.58,17.68,6.17,24.76-.76,14.06-13.76,14.65-43.84,1.14-58.2C841.33,669.88,830.3,669.84,821.93,678.64Z" style="fill: url(#New_Gradient_Swatch-3)" />
		<path d="M704.72,786.51c-7.24,7.83-9.57,17.47-11.1,28.37,2.54,7.9,4,16.38,7.84,23.58,7.89,14.79,23.63,15.19,33.46,1.63,10.06-13.86,9.55-38.76-1.07-52.26C725.92,777.74,713.44,777.09,704.72,786.51Z" style="fill: url(#New_Gradient_Swatch-4)" />
		<path d="M437.1,576.5c-11.36,13.2-11.71,40.55-.69,53.93,9.54,11.57,22.27,11.38,31.3-.5,5.77-7.6,7.88-16.34,7.89-25.72l1.93-.69c-3.06-8.42-5-17.49-9.42-25.12C460.79,565.76,446.66,565.39,437.1,576.5Z" style="fill: url(#New_Gradient_Swatch-5)" />
		<path d="M282.69,681.56c-10.12,13.79-9.86,38.68.55,52.27,8.44,11,23.42,11.2,30.68-.67,4.5-7.35,6.54-16.2,10.11-25.47-3.43-9.05-5.4-18.72-10.4-26.43C305.66,669,291.36,669.75,282.69,681.56Z" style="fill: url(#New_Gradient_Swatch-6)" />
		<path d="M390.06,787.38c-11,13.13-11.8,38.91-1.61,52.9,8.48,11.66,19.88,12.58,29.71,2.17a36.13,36.13,0,0,0,9.45-24c.08-12.62-1.8-22.13-8.08-30.35C411.55,777.69,398.48,777.35,390.06,787.38Z" style="fill: url(#New_Gradient_Swatch-7)" />
		<path d="M598.17,134.18c6.34-8.07,8.84-17.4,8.6-28.26.17-9.68-2.37-19.27-9.14-27.34-8.2-9.78-20.61-9.94-29.31-.61-13.35,14.3-13.27,43.61.15,57.57C577.6,145.05,590.05,144.53,598.17,134.18Z" style="fill: url(#New_Gradient_Swatch-8)" />
		<path d="M551.23,394c9.2,11.83,22.81,11.76,31.95-.11,10.7-13.9,10.55-39.89-.3-53.52-9-11.25-23.57-11.61-31.39.4-4.79,7.36-7,16.41-10.35,24.71l1.87.79C543.12,376.3,544.88,385.85,551.23,394Z" style="fill: url(#New_Gradient_Swatch-9)" />
		<path d="M368.29,232.21c7-8,9.14-17.68,9.32-32,.16-6.09-2.13-15.49-8.59-23.5-8.94-11.09-22.26-11-31.1.06-11.56,14.48-11.24,40.89.68,55.09C347.1,241.94,359.52,242.15,368.29,232.21Z" style="fill: url(#New_Gradient_Swatch-10)" />
		<path d="M807.73,231.42c7.44-8,9.69-17.92,9.95-25.43.22-14.91-3.65-26.05-10.28-32.79-8.24-8.38-19-8.55-27.4-.43-14.21,13.66-14.28,45.51-.13,59.26C788.58,240.49,799.41,240.34,807.73,231.42Z" style="fill: url(#New_Gradient_Swatch-11)" />
		<path d="M296.23,431.86c-7.33-6.8-17.38-6.82-24.57.09-8.71,8.38-11.15,19.12-11.33,28.28.06,13,2.71,22.8,10.12,30.75,7.61,8.17,18.92,8.26,26.77.45C311.63,477.09,311.11,445.66,296.23,431.86Z" style="fill: url(#New_Gradient_Swatch-12)" />
		<path d="M842.9,448.25c-14.47,13.76-14.68,45.18-.4,59.12,8.65,8.44,19.62,8.14,27.75-.94,7.09-7.91,9.38-17.58,9.7-28.12-.11-10.35-2.36-20.21-9.37-28.52C862.84,440.62,851.58,440,842.9,448.25Z" style="fill: url(#New_Gradient_Swatch-13)" />
	</g>
	<g>
		<path d="M165.24,707.62a2.44,2.44,0,0,1-1.71.55H96.76a2,2,0,0,1-1.56-.75,2.58,2.58,0,0,1-.65-1.76v-23q0-10.95,5.22-17t14.86-6q9.63,0,15,6.08t5.32,16.92v21.39h28.62a2.58,2.58,0,0,1,1.71.5,1.85,1.85,0,0,1,.6,1.5A2,2,0,0,1,165.24,707.62Zm-38.46-38.86q-4.12-4.66-12.15-4.67t-12.1,4.67q-4.07,4.66-4.07,14v21.29H130.9V682.77Q130.9,673.43,126.78,668.76Z" style="fill: #dca384" />
		<path d="M115.73,624.83a2.33,2.33,0,0,1,.45-1.65,1.84,1.84,0,0,1,1.36-.46c1.14,0,1.81.71,2,2.11l.3,3q.7,7.33,5.42,11a17,17,0,0,0,10.85,3.72h27.41a2.44,2.44,0,0,1,1.71.55,2.32,2.32,0,0,1,0,3.11,2.44,2.44,0,0,1-1.71.55H118c-1.54,0-2.31-.7-2.31-2.11a2,2,0,0,1,.61-1.5,2.3,2.3,0,0,1,1.7-.6h7.23q-8.62-4.32-9.44-15.67l-.1-1.4Z" style="fill: #dca384" />
		<path d="M162.93,608.06a20.64,20.64,0,0,1-8.84,7.64,34,34,0,0,1-26.61,0,20.87,20.87,0,0,1,0-38,34,34,0,0,1,26.61,0,21.41,21.41,0,0,1,8.84,30.32Zm-6.48-24q-5.47-4.47-15.71-4.47-9.94,0-15.52,4.57t-5.57,12.6q0,8,5.57,12.6t15.52,4.57q10.23,0,15.71-4.47t5.47-12.6Q161.92,588.48,156.45,584Z" style="fill: #dca384" />
		<path d="M102.68,561.78a3.38,3.38,0,0,1-2.61,1.1,3.57,3.57,0,0,1-2.71-1,4,4,0,0,1,0-5.33,3.57,3.57,0,0,1,2.71-1,3.38,3.38,0,0,1,2.61,1.1,3.92,3.92,0,0,1,0,5.23Zm80.93,13.05c0,1.47-.6,2.21-1.81,2.21s-1.77-.74-1.9-2.21l-.21-2.71c-.26-3.75-1.37-6.49-3.31-8.24s-5.22-2.61-9.84-2.61h-48.6a2.25,2.25,0,0,1-1.6-.55,2.29,2.29,0,0,1,0-3.11,2.25,2.25,0,0,1,1.6-.55h48.6q8.43,0,12.4,3.46c2.65,2.31,4.13,6,4.47,11l.2,2.71Z" style="fill: #dca384" />
		<path d="M156.35,501.93a1.84,1.84,0,0,1,1.25-.5,3.13,3.13,0,0,1,2,.75,10.65,10.65,0,0,1,2.16,2.66,28.8,28.8,0,0,1,4.32,15q0,11-6.73,17.22t-18.47,6.28a29.77,29.77,0,0,1-13.26-2.81,21.16,21.16,0,0,1-8.89-7.93,22,22,0,0,1-3.16-11.75q0-9.24,6-14.56T138,500.93a3.9,3.9,0,0,1,2.61.7,3.2,3.2,0,0,1,.81,2.51v34.54q9.84-.09,15.16-5T161.92,520a21.08,21.08,0,0,0-1.3-8,31.94,31.94,0,0,0-3.42-6.17,7.73,7.73,0,0,1-1.4-2.71A1.58,1.58,0,0,1,156.35,501.93Zm-32.13,31.18q4.77,4.67,13.3,5.47V504.94q-8.73.21-13.4,4.32c-3.12,2.75-4.67,6.59-4.67,11.55S121,530,124.22,533.11Z" style="fill: #dca384" />
		<path d="M162.93,480.14a20.67,20.67,0,0,1-8.84,7.78,29.8,29.8,0,0,1-13.15,2.77,30.39,30.39,0,0,1-13.31-2.77,20.85,20.85,0,0,1-8.94-7.83,21.5,21.5,0,0,1-3.16-11.59,27.28,27.28,0,0,1,1-7.23,18.32,18.32,0,0,1,3-6.23,16.5,16.5,0,0,1,2.46-2.66,3.25,3.25,0,0,1,2.06-.75,1.78,1.78,0,0,1,1.25.5,1.56,1.56,0,0,1,.55,1.2,2.36,2.36,0,0,1-.45,1.21q-.45.7-1,1.5a29.41,29.41,0,0,0-3.42,5.48,16.06,16.06,0,0,0-1.3,6.88q0,8.33,5.72,13.05T141,486.17q9.84,0,15.36-4.67t5.52-13a17.72,17.72,0,0,0-1.3-7.18,26.72,26.72,0,0,0-3.42-5.68,6.17,6.17,0,0,1-1.4-2.61,1.71,1.71,0,0,1,1.7-1.7,2.66,2.66,0,0,1,1.81.7,23.08,23.08,0,0,1,2.41,2.71,22,22,0,0,1,3.11,6.43A24.68,24.68,0,0,1,166,468.7,21.29,21.29,0,0,1,162.93,480.14Z" style="fill: #dca384" />
		<path d="M163.93,418.19c1.47,0,2.11,1,1.91,2.91l-.2,2.61q-.51,7.53-4.57,11.05t-12.6,3.51H120.35v8.34a1.6,1.6,0,0,1-.5,1.2,1.62,1.62,0,0,1-1.21.5,1.91,1.91,0,0,1-1.35-.5,1.55,1.55,0,0,1-.55-1.2v-8.34H103.38a2.3,2.3,0,0,1-1.7-.6,2.16,2.16,0,0,1,0-3,2.3,2.3,0,0,1,1.7-.6h13.36V420.7a1.55,1.55,0,0,1,.55-1.2,1.92,1.92,0,0,1,1.35-.51,1.71,1.71,0,0,1,1.21.46,1.58,1.58,0,0,1,.5,1.25v13.36h28.22q6.83,0,9.74-2.67t3.41-8.28l.2-2.71C162.06,418.93,162.73,418.19,163.93,418.19Z" style="fill: #dca384" />
		<path d="M165.19,389.52a2.49,2.49,0,0,1-1.66.56H98.36v24.6a1.73,1.73,0,0,1-.5,1.3,1.87,1.87,0,0,1-1.41.5,1.91,1.91,0,0,1-1.35-.5,1.66,1.66,0,0,1-.55-1.3V361.36a1.89,1.89,0,0,1,.55-1.31,1.77,1.77,0,0,1,1.35-.6,1.72,1.72,0,0,1,1.41.6,2,2,0,0,1,.5,1.31v24.5h65.17a2.48,2.48,0,0,1,1.66.55,2,2,0,0,1,.65,1.56A1.92,1.92,0,0,1,165.19,389.52Z" style="fill: #dca384" />
		<path d="M115.73,335.55a2.37,2.37,0,0,1,.45-1.66,1.88,1.88,0,0,1,1.36-.45c1.14,0,1.81.71,2,2.11l.3,3q.7,7.33,5.42,11.05a17,17,0,0,0,10.85,3.71h27.41a2.45,2.45,0,0,1,1.71.56,2,2,0,0,1,.6,1.55,2,2,0,0,1-.6,1.56,2.44,2.44,0,0,1-1.71.55H118c-1.54,0-2.31-.7-2.31-2.11a2,2,0,0,1,.61-1.5,2.27,2.27,0,0,1,1.7-.61h7.23q-8.62-4.31-9.44-15.66l-.1-1.41Z" style="fill: #dca384" />
		<path d="M156.35,287.76a1.81,1.81,0,0,1,1.25-.51,3.15,3.15,0,0,1,2,.76,10.65,10.65,0,0,1,2.16,2.66,28.8,28.8,0,0,1,4.32,15q0,11-6.73,17.22t-18.47,6.28a29.64,29.64,0,0,1-13.26-2.82,21.1,21.1,0,0,1-8.89-7.93,22,22,0,0,1-3.16-11.75q0-9.22,6-14.56T138,286.75a3.9,3.9,0,0,1,2.61.71,3.19,3.19,0,0,1,.81,2.51v34.54q9.84-.11,15.16-5t5.32-13.71a21.08,21.08,0,0,0-1.3-8,32,32,0,0,0-3.42-6.18,7.65,7.65,0,0,1-1.4-2.71A1.55,1.55,0,0,1,156.35,287.76Zm-32.13,31.17q4.77,4.68,13.3,5.48V290.77q-8.73.19-13.4,4.32t-4.67,11.54Q119.45,314.27,124.22,318.93Z" style="fill: #dca384" />
		<path d="M156.35,235.14a1.84,1.84,0,0,1,1.25-.5,3.13,3.13,0,0,1,2,.75,10.85,10.85,0,0,1,2.16,2.66A28.8,28.8,0,0,1,166,253q0,10.93-6.73,17.22t-18.47,6.27a29.77,29.77,0,0,1-13.26-2.81,21.16,21.16,0,0,1-8.89-7.93A22,22,0,0,1,115.53,254q0-9.24,6-14.56T138,234.14a3.9,3.9,0,0,1,2.61.7,3.21,3.21,0,0,1,.81,2.51v34.54q9.84-.09,15.16-5t5.32-13.7a21.1,21.1,0,0,0-1.3-8,31.94,31.94,0,0,0-3.42-6.17,7.73,7.73,0,0,1-1.4-2.71A1.58,1.58,0,0,1,156.35,235.14Zm-32.13,31.18q4.77,4.67,13.3,5.47V238.15q-8.73.21-13.4,4.32T119.45,254Q119.45,261.66,124.22,266.32Z" style="fill: #dca384" />
	</g>
</svg>
